# xmcd
# 
# Track frame offsets:
#     180
#     16327
#     28006
#     42968
#     61930
#     76653
#     92556
#     103897
#     118490
#     134643
#     152444
#     170626
#     185171
#     194473
# 
# Disc length: 2759
# 
# Revision: 2
# Processed by: cddbd v1.5.2PL0 Copyright (c) Steve Scherf et al.
# Submitted via: BonkEnc v1.0
# 
DISCID=bf0ac50e
DTITLE=Diversos - CIA. Do Samba
DYEAR=0
DGENRE=
TTITLE0=Paparico
TTITLE1=Beijo Geladinho
TTITLE2=O Amor Voc  E Eu
TTITLE3=L  Vem O Neg o
TTITLE4=Telefona
TTITLE5=Marron Bombom
TTITLE6=Porrada Da Vida
TTITLE7=Mal cia Em Seu Olhar
TTITLE8=Sereia
TTITLE9=Vai L  Vai L 
TTITLE10=Pacato Cidad o
TTITLE11=Medo
TTITLE12=Cinto De Seguran a
TTITLE13=Trem Das Onze
EXTD=
EXTT0=
EXTT1=
EXTT2=
EXTT3=
EXTT4=
EXTT5=
EXTT6=
EXTT7=
EXTT8=
EXTT9=
EXTT10=
EXTT11=
EXTT12=
EXTT13=
PLAYORDER=
